<?xml version="1.0" standalone="no"?>
<!DOCTYPE svg PUBLIC "-//W3C//DTD SVG 20010904//EN"
 "http://www.w3.org/TR/2001/REC-SVG-20010904/DTD/svg10.dtd">
<svg version="1.0" xmlns="http://www.w3.org/2000/svg"
 width="284.000000pt" height="279.000000pt" viewBox="0 0 284.000000 279.000000"
 preserveAspectRatio="xMidYMid meet">

<g transform="translate(0.000000,279.000000) scale(0.100000,-0.100000)"
fill="#000000" stroke="none">
<path d="M29 2773 c-12 -13 -14 -237 -14 -1369 l0 -1353 23 -23 23 -23 1354 0
1354 0 23 23 23 23 3 463 3 464 -58 54 c-32 30 -96 88 -143 129 -47 41 -173
152 -280 248 -107 95 -267 237 -355 315 -87 77 -186 166 -220 196 -33 30 -234
208 -445 395 -211 187 -418 370 -459 408 l-76 67 -371 0 c-333 0 -373 -2 -385
-17z m656 -1758 l0 -740 -145 0 -145 0 -3 730 c-1 402 0 736 3 743 3 10 39 12
147 10 l143 -3 0 -740z m885 724 c235 -65 403 -254 466 -524 24 -105 22 -306
-5 -417 -50 -209 -178 -381 -346 -464 -231 -114 -501 -68 -683 117 -224 227
-276 640 -120 959 54 110 178 238 280 288 132 64 274 79 408 41z"/>
<path d="M1380 1451 c-162 -33 -254 -190 -254 -436 0 -177 47 -306 137 -378
52 -42 95 -57 164 -57 93 0 160 42 223 140 91 142 94 435 5 585 -64 109 -172
166 -275 146z"/>
<path d="M956 2781 c14 -13 455 -404 739 -656 137 -121 442 -392 679 -603 237
-210 434 -382 438 -382 5 0 7 364 6 808 -3 668 -5 812 -17 825 -12 16 -90 17
-934 17 -532 0 -917 -4 -911 -9z m1134 -189 c59 -31 80 -86 80 -214 0 -60 4
-110 10 -113 6 -3 10 -20 10 -36 0 -28 -2 -30 -31 -27 -19 2 -36 11 -43 23 -6
11 -12 22 -13 24 -2 2 -11 -3 -21 -12 -52 -47 -139 -59 -200 -28 -44 22 -66
58 -66 106 0 47 20 79 65 105 34 18 52 21 124 19 46 -2 87 0 90 3 4 3 1 24 -5
47 -18 70 -92 90 -179 50 -39 -17 -47 -18 -59 -5 -53 52 153 102 238 58z m433
4 c44 -18 93 -76 75 -87 -23 -15 -61 -10 -84 12 -33 31 -100 35 -141 10 -48
-30 -66 -73 -61 -143 4 -50 9 -63 38 -93 53 -54 121 -56 177 -3 16 15 29 18
52 13 40 -9 39 -26 -4 -63 -86 -76 -219 -66 -292 23 -115 139 -23 345 155 345
29 0 67 -6 85 -14z"/>
<path d="M1940 2393 c-29 -11 -60 -47 -60 -69 0 -31 39 -73 70 -75 59 -3 81 3
115 32 44 39 46 85 5 106 -25 13 -102 16 -130 6z"/>
</g>
</svg>
